PathFileType	4	(X/Y/Z)	/Users/itak/Documents/Research/Walk-IL/dataset/trc/00447_00167.trc
DataRate	CameraRate	NumFrames	NumMarkers	Units	OrigDataRate	OrigDataStartFrame	OrigNumFrames
100.000000	100.000000	4	55	mm	100.000000	110	294
Frame#	Time	RPSI			LPSI			L3			STRN			T10			C7			CLAV			RBAK			LBAK			LSHO			LUPA			LAEL			LAOL			LWTS			LWPS			LFRA			LIFD			LHPS			LHTS			RSHO			RUPA			RAEL			RAOL			RWTS			RWPS			RFRA			RIFD			RHTS			RHPS			RBHD			LFHD			RFHD			LBHD			LHIP			RHIP			RASI			LASI			LKNE			LTHI			LANK			LTIP			LTOE			LMT1			LMT5			LHEE			RKNE			RTHI			RANK			RTIP			RTOE			RMT1			RMT5			RHEE			*53			*54			
		X1	Y1	Z1	X2	Y2	Z2	X3	Y3	Z3	X4	Y4	Z4	X5	Y5	Z5	X6	Y6	Z6	X7	Y7	Z7	X8	Y8	Z8	X9	Y9	Z9	X10	Y10	Z10	X11	Y11	Z11	X12	Y12	Z12	X13	Y13	Z13	X14	Y14	Z14	X15	Y15	Z15	X16	Y16	Z16	X17	Y17	Z17	X18	Y18	Z18	X19	Y19	Z19	X20	Y20	Z20	X21	Y21	Z21	X22	Y22	Z22	X23	Y23	Z23	X24	Y24	Z24	X25	Y25	Z25	X26	Y26	Z26	X27	Y27	Z27	X28	Y28	Z28	X29	Y29	Z29	X30	Y30	Z30	X31	Y31	Z31	X32	Y32	Z32	X33	Y33	Z33	X34	Y34	Z34	X35	Y35	Z35	X36	Y36	Z36	X37	Y37	Z37	X38	Y38	Z38	X39	Y39	Z39	X40	Y40	Z40	X41	Y41	Z41	X42	Y42	Z42	X43	Y43	Z43	X44	Y44	Z44	X45	Y45	Z45	X46	Y46	Z46	X47	Y47	Z47	X48	Y48	Z48	X49	Y49	Z49	X50	Y50	Z50	X51	Y51	Z51	X52	Y52	Z52	X53	Y53	Z53	X54	Y54	Z54	X55	Y55	Z55	

111	1.1	-1168.767333984375	923.1608276367188	-354.5076904296875	-1108.275268554688	921.3626098632812	-483.3273620605469	-1094.31005859375	1022.395812988281	-393.0045776367188	-791.4737548828125	1115.9384765625	-245.974853515625	-1064.363037109375	1140.889282226562	-383.3052062988281	-941.9917602539062	1362.993774414062	-291.9884948730469	-792.8655395507812	1235.97509765625	-242.8410797119141	-1060.43408203125	1266.682373046875	-254.80859375	-934.2427368164062	1340.09228515625	-401.2310485839844	-801.8864135742188	1336.9541015625	-422.7521057128906	-791.708251953125	1248.172607421875	-542.125244140625	-800.9161376953125	1053.068603515625	-623.6657104492188	-906.0630493164062	1050.928100585938	-626.5176391601562	-771.8168334960938	872.619384765625	-510.9431457519531	-776.7715454101562	844.9340209960938	-579.4003295898438	-782.015380859375	966.7666625976562	-606.9451904296875	-777.6488037109375	707.3079833984375	-483.2852172851562	-771.3634643554688	766.6318969726562	-563.2080078125	-750.1801147460938	784.5645141601562	-496.5658569335938	-957.7548217773438	1305.100830078125	-122.9557723999023	-1023.7509765625	1256.514404296875	-72.92317199707031	-1159.721069335938	1003.095397949219	-62.35646438598633	-1185.746948242188	1012.2802734375	-123.7784957885742	-1172.031372070312	768.8724975585938	-92.06763458251953	-1251.63427734375	801.5596313476562	-70.76353454589844	-1190.283325195312	952.7966918945312	-61.71709442138672	-1272.918334960938	649.45703125	-133.8640747070312	-1229.224487304688	681.2537231445312	-105.47607421875	-1290.450073242188	723.994384765625	-87.88904571533203	-900.6090698242188	1532.488403320312	-178.3663635253906	-713.3202514648438	1545.62548828125	-266.5634155273438	-767.17041015625	1548.516845703125	-147.1905822753906	-842.014892578125	1533.057373046875	-347.6796264648438	-964.6412353515625	782.3609619140625	-546.44873046875	-1125.569946289062	808.0760498046875	-180.4007263183594	-1007.399780273438	831.3386840820312	-208.5823211669922	-900.7431640625	802.6889038085938	-435.2063903808594	-1003.487976074219	357.8778381347656	-566.3008422851562	-944.7931518554688	507.7622985839844	-540.7955322265625	-1365.248901367188	206.0803527832031	-769.5963134765625	-1122.917236328125	280.2771606445312	-648.367431640625	-1351.197998046875	40.38950347900391	-631.7927856445312	-1376.8759765625	98.79605865478516	-630.2518310546875	-1330.314697265625	73.96898651123047	-728.800537109375	-1391.641845703125	268.4992370605469	-739.8860473632812	-1009.459777832031	425.3346252441406	-139.7323760986328	-1078.3251953125	678.9530029296875	-136.9588928222656	-1212.228149414062	72.21519470214844	-291.5396423339844	-1067.754638671875	293.564453125	-170.7292785644531	-1008.288940429688	47.10442352294922	-233.8210296630859	-1039.868896484375	55.00975799560547	-292.8260192871094	-1113.307250976562	42.98539733886719	-212.5182342529297	-1246.530395507812	92.0675048828125	-364.1023864746094	nan	nan	nan	nan	nan	nan	
112	1.11	-1155.072875976562	920.2354125976562	-348.3402099609375	-1093.421508789062	916.72705078125	-476.7857971191406	-1081.273193359375	1019.739685058594	-383.6898498535156	-777.4095458984375	1112.413940429688	-236.5093536376953	-1052.043212890625	1137.977905273438	-372.0887756347656	-929.2257080078125	1359.414184570312	-279.5208740234375	-779.2430419921875	1232.486450195312	-232.6028594970703	-1047.828247070312	1262.185668945312	-241.3914642333984	-922.1422119140625	1337.561889648438	-388.5332336425781	-789.5770263671875	1334.641845703125	-411.7035522460938	-782.0897827148438	1247.402099609375	-532.2360229492188	-798.61328125	1052.4970703125	-617.5852661132812	-903.4991455078125	1056.651123046875	-618.801025390625	-780.0154418945312	863.2845458984375	-517.6295776367188	-787.9130859375	840.4910278320312	-587.5785522460938	-785.0491333007812	964.0816650390625	-606.9513549804688	-796.2254638671875	697.6910400390625	-500.649658203125	-787.6840209960938	761.3408203125	-576.5191040039062	-764.47509765625	773.4193725585938	-509.3195190429688	-943.8029174804688	1299.458129882812	-110.9779739379883	-1008.340576171875	1249.393920898438	-60.15225601196289	-1137.977905273438	991.9300537109375	-47.29495620727539	-1165.364868164062	998.6044921875	-108.4033660888672	-1135.9189453125	757.6265258789062	-73.26163482666016	-1217.2109375	785.7288818359375	-51.86991119384766	-1165.545532226562	939.8837890625	-45.71300506591797	-1229.211669921875	631.533203125	-110.2984924316406	-1187.34814453125	666.6680297851562	-83.54669952392578	-1251.090576171875	705.7108154296875	-66.60715484619141	-888.6322021484375	1528.525024414062	-165.7331848144531	-701.6158447265625	1542.542114257812	-254.6532440185547	-755.1290283203125	1545.251586914062	-135.0573425292969	-830.5908813476562	1529.22998046875	-335.3099060058594	-946.9844970703125	777.83740234375	-537.6032104492188	-1114.40771484375	803.3242797851562	-174.6526794433594	-995.1544799804688	826.964111328125	-200.2321166992188	-886.079833984375	799.8646240234375	-425.7692260742188	-970.6004638671875	352.2306823730469	-549.835693359375	-916.3758544921875	503.4850769042969	-527.0020141601562	-1336.754028320312	223.0603790283203	-758.6821899414062	-1092.9755859375	279.9638061523438	-633.1921997070312	-1337.176635742188	44.45332717895508	-626.6008911132812	-1357.517333984375	109.9111862182617	-622.9366455078125	-1310.46826171875	85.73255157470703	-721.3668823242188	-1361.388305664062	285.5888671875	-727.9473266601562	-1005.445739746094	417.45556640625	-139.9724578857422	-1069.607543945312	672.0026245117188	-132.9638214111328	-1213.560424804688	69.686279296875	-292.543701171875	-1065.425659179688	286.7508850097656	-171.6799468994141	-1008.962158203125	47.12236404418945	-234.9821319580078	-1040.904052734375	54.28794097900391	-293.896240234375	-1114.191650390625	42.7828369140625	-212.9736022949219	-1248.408203125	88.36437225341797	-365.2656860351562	nan	nan	nan	nan	nan	nan	
113	1.12	-1141.50048828125	917.0557861328125	-343.0194702148438	-1078.338012695312	911.6170654296875	-470.8925476074219	-1068.354736328125	1016.641845703125	-374.9278869628906	-763.4081420898438	1108.403686523438	-227.1850891113281	-1039.62158203125	1134.706420898438	-361.3064575195312	-916.2289428710938	1355.7412109375	-267.2938232421875	-765.4366455078125	1228.51904296875	-222.5499572753906	-1035.158447265625	1257.479248046875	-228.3240356445312	-909.8181762695312	1334.72998046875	-376.1889953613281	-776.9764404296875	1332.003784179688	-400.9618530273438	-772.3372802734375	1246.151123046875	-522.5970458984375	-796.4437866210938	1052.109008789062	-611.752685546875	-900.6922607421875	1062.252197265625	-610.74951171875	-789.075439453125	855.5186767578125	-525.4425048828125	-799.6658325195312	838.0778198242188	-596.522705078125	-788.4406127929688	962.310302734375	-607.4185791015625	-815.747314453125	691.0217895507812	-519.288330078125	-804.7011108398438	758.7230834960938	-590.7354125976562	-779.7344970703125	764.7008666992188	-523.3944702148438	-929.6644897460938	1293.531860351562	-99.21511077880859	-992.7196655273438	1241.854125976562	-47.63854217529297	-1115.668090820312	980.6889038085938	-32.20861053466797	-1144.465209960938	984.472900390625	-92.86385345458984	-1097.713256835938	747.6622314453125	-54.01835632324219	-1180.504760742188	770.58740234375	-32.43120193481445	-1139.802124023438	926.98046875	-29.55365371704102	-1181.923461914062	614.7843627929688	-85.03135681152344	-1142.395263671875	653.5673217773438	-60.43446350097656	-1208.692749023438	688.3182373046875	-44.15406799316406	-876.5133666992188	1524.39208984375	-153.3538513183594	-689.7847900390625	1539.447631835938	-242.922119140625	-742.987548828125	1541.936279296875	-123.1203765869141	-818.9862060546875	1525.265502929688	-323.1518859863281	-928.8432006835938	773.161376953125	-528.8238525390625	-1103.728637695312	798.9716186523438	-169.2855682373047	-983.3299560546875	822.7459106445312	-191.7633056640625	-871.581298828125	796.7252197265625	-416.2224426269531	-937.0701293945312	347.8592224121094	-532.61474609375	-887.4765014648438	500.1099853515625	-512.81201171875	-1306.82470703125	239.2100677490234	-745.9090576171875	-1062.021362304688	280.6956176757812	-617.0550537109375	-1316.745239257812	50.36084365844727	-619.507568359375	-1333.5107421875	121.0433731079102	-613.5685424804688	-1286.119018554688	98.36342620849609	-712.146484375	-1330.520751953125	301.3296203613281	-714.0604858398438	-1001.095581054688	410.5365600585938	-140.0985717773438	-1060.778686523438	665.9692993164062	-129.1910552978516	-1214.473876953125	67.75648498535156	-293.4168701171875	-1062.79638671875	280.8067626953125	-172.5323638916016	-1009.385559082031	47.35175323486328	-235.6576232910156	-1041.605102539062	53.92499923706055	-294.6199645996094	-1114.796997070312	42.92110824584961	-213.2469940185547	-1249.79248046875	85.27084350585938	-366.2884521484375	nan	nan	nan	nan	nan	nan	
114	1.13	-1127.868530273438	913.8257446289062	-338.4268493652344	-1062.877319335938	906.408935546875	-465.5350952148438	-1055.436157226562	1013.254089355469	-366.770751953125	-749.42529296875	1104.188354492188	-217.9802093505859	-1026.9111328125	1131.27490234375	-351.016845703125	-902.9564208984375	1352.211059570312	-255.3669586181641	-751.4078979492188	1224.354370117188	-212.697021484375	-1022.3232421875	1252.786865234375	-215.7931213378906	-897.1944580078125	1331.8310546875	-364.2738342285156	-764.0469970703125	1329.263549804688	-390.5643005371094	-762.3900146484375	1244.641235351562	-513.2462158203125	-794.3072509765625	1052.1923828125	-606.1360473632812	-897.5960693359375	1067.894409179688	-602.3427734375	-798.69970703125	849.7960205078125	-534.0903930664062	-811.6897583007812	838.0848388671875	-605.8884887695312	-791.9879150390625	961.8015747070312	-608.1766357421875	-835.7536010742188	687.7653198242188	-538.7398071289062	-821.9924926757812	759.181396484375	-605.422607421875	-795.5609741210938	758.9103393554688	-538.39599609375	-915.3419799804688	1287.631591796875	-87.71420288085938	-976.9525756835938	1234.196411132812	-35.51795959472656	-1092.752685546875	969.7552490234375	-17.26309394836426	-1122.957641601562	970.2984619140625	-77.30250549316406	-1057.557373046875	739.691650390625	-34.65849304199219	-1141.55126953125	756.837646484375	-12.70285034179688	-1113.008056640625	914.5604858398438	-13.41644763946533	-1131.061645507812	600.2487182617188	-58.50077056884766	-1094.511108398438	642.8677978515625	-36.54861068725586	-1163.267211914062	672.6950073242188	-20.85022354125977	-864.1482543945312	1520.363403320312	-141.2811279296875	-677.7059326171875	1536.549194335938	-231.3991241455078	-730.6372680664062	1538.778930664062	-111.4175643920898	-807.0671997070312	1521.451538085938	-311.2590942382812	-910.158447265625	768.7186279296875	-520.0242309570312	-1093.398803710938	795.1373901367188	-164.2408905029297	-971.892822265625	818.867431640625	-183.1404876708984	-857.1470336914062	793.5548706054688	-406.4587707519531	-902.9422607421875	345.1336364746094	-514.81005859375	-858.1329956054688	498.0521850585938	-498.2606811523438	-1275.76611328125	253.9671173095703	-731.3812866210938	-1030.08203125	282.6319274902344	-600.1663818359375	-1290.102661132812	57.52678680419922	-610.2952270507812	-1305.164794921875	131.52783203125	-602.11669921875	-1257.544921875	111.0243377685547	-701.0311279296875	-1299.225830078125	315.3194274902344	-698.3870239257812	-996.6427001953125	404.5343933105469	-140.1861877441406	-1051.813354492188	660.8912353515625	-125.569206237793	-1215.046020507812	66.31304931640625	-294.2333679199219	-1060.048950195312	275.6660766601562	-173.3512725830078	-1009.61474609375	47.64495086669922	-236.0267639160156	-1042.031860351562	53.74894714355469	-295.1433410644531	-1115.183837890625	43.24018096923828	-213.4615936279297	-1250.7490234375	82.7550048828125	-367.2529907226562	nan	nan	nan	nan	nan	nan	
